<svg xmlns="http://www.w3.org/2000/svg" viewBox="0 0 24 24" id="gog-dot-com"><path d="M21.37 11.537h.01V5.636c0-.574-.47-1.047-1.05-1.047H16.9c-.58 0-1.05.473-1.05 1.047V9.1c0 .584.47 1.047 1.05 1.047h2.31V8.788h-1.62c-.22 0-.4-.171-.4-.403V6.351c0-.223.179-.403.4-.403h2.03c.221 0 .4.18.4.403v4.481a.402.402 0 0 1-.4.403h-3.78v1.36h4.48a1.055 1.055 0 0 0 1.05-1.058zm-13.21 0h-.01V5.636c0-.574-.47-1.047-1.05-1.047H3.68c-.58 0-1.05.473-1.05 1.047V9.1c0 .584.47 1.047 1.05 1.047H6V8.788H4.38c-.22 0-.4-.171-.4-.403V6.351c0-.223.179-.403.4-.403h2.03c.221 0 .4.18.4.403v4.481a.402.402 0 0 1-.4.403H2.63v1.36h4.48a1.055 1.055 0 0 0 1.05-1.058zm1.08 7.875h3.39c.57 0 1.03-.463 1.03-1.037v-3.414a1.03 1.03 0 0 0-1.03-1.027H9.24c-.57 0-1.03.463-1.03 1.027v3.414c0 .573.46 1.037 1.03 1.037zm.3-3.746c0-.222.18-.403.4-.403h2c.22 0 .4.181.4.403h-.01v2.014a.402.402 0 0 1-.4.403v-.01H9.94c-.221 0-.4-.18-.4-.403v-2.004zM3.96 17.68v-2.014c0-.223.179-.403.4-.403h2.79v-1.329H3.67c-.57 0-1.03.463-1.03 1.027v3.414c0 .574.46 1.037 1.02 1.037h3.5v-1.329h-2.8a.41.41 0 0 1-.4-.403zm6.32-7.533h3.44c.57 0 1.04-.463 1.04-1.047V5.636a1.05 1.05 0 0 0-1.04-1.047h-3.44c-.58 0-1.04.473-1.04 1.047V9.1c0 .584.46 1.047 1.04 1.047zm.31-3.786c0-.222.17-.403.4-.403H13c.23 0 .4.181.4.403l.02-.01v2.034a.401.401 0 0 1-.4.403h-2.03c-.221 0-.4-.18-.4-.403V6.361z"></path><path d="M1.74 23.5h20.52c.961 0 1.74-.784 1.74-1.752V2.262c0-.483-.2-.926-.51-1.249v.01A1.73 1.73 0 0 0 22.25.5H1.74C.779.5 0 1.285 0 2.252V21.748c0 .968.779 1.752 1.74 1.752zM.5 21.738c0-.001 0-.001 0 0V2.252c0-.684.551-1.239 1.23-1.239H22.24c.685 0 1.24.559 1.24 1.249v19.475h.01v.01c0 .684-.551 1.239-1.23 1.239H1.73c-.679 0-1.23-.555-1.23-1.239v-.009z"></path><path d="M14.72 19.412h1.33v-3.746c0-.223.179-.403.4-.403h.93v4.149h1.33v-3.746c0-.223.179-.403.4-.403h.93v4.149h1.32v-5.478h-5.61c-.57 0-1.03.463-1.03 1.027v4.451zM.435 9.205s0-.001 0 0l.01-.022-.01.022z"></path></svg>